<?xml version="1.0" encoding="UTF-8"?>
<!DOCTYPE svg PUBLIC "-//W3C//DTD SVG 1.1//EN" "http://www.w3.org/Graphics/SVG/1.1/DTD/svg11.dtd">
<svg xmlns="http://www.w3.org/2000/svg" version="1.1" width="500px" height="500px" style="shape-rendering:geometricPrecision; text-rendering:geometricPrecision; image-rendering:optimizeQuality; fill-rule:evenodd; clip-rule:evenodd" xmlns:xlink="http://www.w3.org/1999/xlink">
<g><path style="opacity:1" fill="#fcf5eb" d="M -0.5,-0.5 C 166.167,-0.5 332.833,-0.5 499.5,-0.5C 499.5,166.167 499.5,332.833 499.5,499.5C 332.833,499.5 166.167,499.5 -0.5,499.5C -0.5,332.833 -0.5,166.167 -0.5,-0.5 Z"/></g>
<g><path style="opacity:1" fill="#5c5956" d="M 283.5,104.5 C 263.742,98.9782 244.075,99.3115 224.5,105.5C 228.756,103.095 233.423,101.595 238.5,101C 250.167,99 261.833,99 273.5,101C 277.163,101.572 280.497,102.738 283.5,104.5 Z"/></g>
<g><path style="opacity:1" fill="#5e5c58" d="M 224.5,105.5 C 220.376,107.898 216.042,109.731 211.5,111C 215.374,108.063 219.707,106.229 224.5,105.5 Z"/></g>
<g><path style="opacity:1" fill="#88847f" d="M 283.5,104.5 C 293.801,106.816 302.801,111.483 310.5,118.5C 301.901,113.034 292.901,108.367 283.5,104.5 Z"/></g>
<g><path style="opacity:1" fill="#54514e" d="M 206.5,114.5 C 207.002,112.915 208.002,112.415 209.5,113C 208.756,114.039 207.756,114.539 206.5,114.5 Z"/></g>
<g><path style="opacity:1" fill="#8f8b86" d="M 243.5,114.5 C 251.84,114.334 260.173,114.5 268.5,115C 271.232,115.413 273.899,116.08 276.5,117C 269.578,116.139 262.578,115.639 255.5,115.5C 249.405,115.383 243.405,116.049 237.5,117.5C 236.833,117.333 236.167,117.167 235.5,117C 238.31,116.218 240.977,115.384 243.5,114.5 Z"/></g>
<g><path style="opacity:1" fill="#615f5b" d="M 206.5,114.5 C 206.027,115.906 205.027,116.573 203.5,116.5C 203.973,115.094 204.973,114.427 206.5,114.5 Z"/></g>
<g><path style="opacity:1" fill="#8c8882" d="M 228.5,124.5 C 239.817,119.116 251.817,117.282 264.5,119C 267.877,119.452 271.211,120.118 274.5,121C 265.902,119.828 257.235,119.494 248.5,120C 241.674,120.874 235.007,122.374 228.5,124.5 Z"/></g>
<g><path style="opacity:1" fill="#0d0d0d" d="M 203.5,116.5 C 199.503,120.665 195.67,124.998 192,129.5C 187.989,137.527 182.989,144.86 177,151.5C 172.736,158.027 169.569,165.027 167.5,172.5C 166.532,170.393 166.198,168.059 166.5,165.5C 167.844,155.145 171.677,145.812 178,137.5C 185.229,128.753 193.729,121.753 203.5,116.5 Z"/></g>
<g><path style="opacity:1" fill="#a19c96" d="M 310.5,118.5 C 317.167,122.5 322.5,127.833 326.5,134.5C 320.833,129.5 315.5,124.167 310.5,118.5 Z"/></g>
<g><path style="opacity:1" fill="#6f6d68" d="M 291.5,124.5 C 292.497,123.287 293.497,123.454 294.5,125C 293.423,125.47 292.423,125.303 291.5,124.5 Z"/></g>
<g><path style="opacity:1" fill="#73706b" d="M 299.5,128.5 C 298.244,128.539 297.244,128.039 296.5,127C 297.998,126.415 298.998,126.915 299.5,128.5 Z"/></g>
<g><path style="opacity:1" fill="#7a7772" d="M 228.5,124.5 C 226.162,126.504 223.495,127.671 220.5,128C 222.818,126.007 225.484,124.841 228.5,124.5 Z"/></g>
<g><path style="opacity:1" fill="#76736f" d="M 214.5,132.5 C 215.254,130.554 216.588,129.721 218.5,130C 217.529,131.481 216.196,132.315 214.5,132.5 Z"/></g>
<g><path style="opacity:1" fill="#706d69" d="M 299.5,128.5 C 301.404,128.738 302.738,129.738 303.5,131.5C 301.596,131.262 300.262,130.262 299.5,128.5 Z"/></g>
<g><path style="opacity:1" fill="#696662" d="M 303.5,131.5 C 307.833,133.833 311.167,137.167 313.5,141.5C 309.833,138.5 306.5,135.167 303.5,131.5 Z"/></g>
<g><path style="opacity:1" fill="#161515" d="M 214.5,132.5 C 207.009,142.804 199.509,153.137 192,163.5C 190.214,166.736 188.714,170.07 187.5,173.5C 186.833,173.5 186.5,173.167 186.5,172.5C 190.294,158.205 197.627,146.038 208.5,136C 210.405,134.579 212.405,133.412 214.5,132.5 Z"/></g>
<g><path style="opacity:1" fill="#aca7a0" d="M 326.5,134.5 C 330.535,137.669 333.035,141.669 334,146.5C 331.249,142.598 328.749,138.598 326.5,134.5 Z"/></g>
<g><path style="opacity:1" fill="#5f5c59" d="M 313.5,141.5 C 315.531,142.539 316.864,144.205 317.5,146.5C 315.457,145.421 314.124,143.754 313.5,141.5 Z"/></g>
<g><path style="opacity:1" fill="#575451" d="M 317.5,146.5 C 318.906,146.973 319.573,147.973 319.5,149.5C 318.094,149.027 317.427,148.027 317.5,146.5 Z"/></g>
<g><path style="opacity:1" fill="#54514e" d="M 319.5,149.5 C 322.874,153.581 325.207,158.247 326.5,163.5C 323.659,159.151 321.326,154.484 319.5,149.5 Z"/></g>
<g><path style="opacity:1" fill="#817d78" d="M 351.5,185.5 C 351.167,185.5 350.833,185.5 350.5,185.5C 349.317,176.424 347.817,167.424 346,158.5C 349.051,167.257 350.885,176.257 351.5,185.5 Z"/></g>
<g><path style="opacity:1" fill="#5d5b57" d="M 166.5,165.5 C 166.198,168.059 166.532,170.393 167.5,172.5C 164.795,189.785 166.128,206.785 171.5,223.5C 167.958,216.347 165.791,208.681 165,200.5C 164.406,188.64 164.906,176.973 166.5,165.5 Z"/></g>
<g><path style="opacity:1" fill="#5e5b58" d="M 326.5,163.5 C 328.662,167.14 330.162,171.14 331,175.5C 331.831,181.477 332.331,187.477 332.5,193.5C 331.833,193.5 331.167,193.5 330.5,193.5C 331.11,183.223 329.777,173.223 326.5,163.5 Z"/></g>
<g><path style="opacity:1" fill="#94908a" d="M 186.5,172.5 C 186.5,173.167 186.833,173.5 187.5,173.5C 186.852,175.086 186.352,176.753 186,178.5C 185.667,186.5 185.333,194.5 185,202.5C 182.78,192.235 183.28,182.235 186.5,172.5 Z"/></g>
<g><path style="opacity:1" fill="#171716" d="M 350.5,185.5 C 350.833,185.5 351.167,185.5 351.5,185.5C 356.7,215.519 347.366,239.519 323.5,257.5C 341.972,237.194 350.972,213.194 350.5,185.5 Z"/></g>
<g><path style="opacity:1" fill="#0f0f0f" d="M 330.5,193.5 C 331.167,193.5 331.833,193.5 332.5,193.5C 335.443,212.85 329.443,228.683 314.5,241C 309.655,244.356 304.988,247.856 300.5,251.5C 311.43,237.321 320.597,221.987 328,205.5C 328.837,201.486 329.671,197.486 330.5,193.5 Z"/></g>
<g><path style="opacity:1" fill="#86827d" d="M 186.5,207.5 C 188.236,210.214 189.07,213.214 189,216.5C 187.451,213.688 186.618,210.688 186.5,207.5 Z"/></g>
<g><path style="opacity:1" fill="#5b5855" d="M 171.5,223.5 C 173.293,225.426 174.293,227.759 174.5,230.5C 172.707,228.574 171.707,226.241 171.5,223.5 Z"/></g>
<g><path style="opacity:1" fill="#5b5854" d="M 174.5,230.5 C 176.588,232.336 177.921,234.669 178.5,237.5C 176.412,235.664 175.079,233.331 174.5,230.5 Z"/></g>
<g><path style="opacity:1" fill="#504e4a" d="M 178.5,237.5 C 179.906,237.973 180.573,238.973 180.5,240.5C 179.094,240.027 178.427,239.027 178.5,237.5 Z"/></g>
<g><path style="opacity:1" fill="#504e4b" d="M 180.5,240.5 C 181.906,240.973 182.573,241.973 182.5,243.5C 181.094,243.027 180.427,242.027 180.5,240.5 Z"/></g>
<g><path style="opacity:1" fill="#605d5a" d="M 182.5,243.5 C 184.262,244.262 185.262,245.596 185.5,247.5C 183.738,246.738 182.738,245.404 182.5,243.5 Z"/></g>
<g><path style="opacity:1" fill="#74716d" d="M 185.5,247.5 C 189.785,251.119 193.785,255.119 197.5,259.5C 192.521,256.521 188.521,252.521 185.5,247.5 Z"/></g>
<g><path style="opacity:1" fill="#99958f" d="M 221.5,253.5 C 221.56,252.957 221.893,252.624 222.5,252.5C 224.833,253.667 227.167,254.833 229.5,256C 226.613,256.067 223.946,255.233 221.5,253.5 Z"/></g>
<g><path style="opacity:1" fill="#2e2d2c" d="M 300.5,251.5 C 300.027,252.906 299.027,253.573 297.5,253.5C 297.973,252.094 298.973,251.427 300.5,251.5 Z"/></g>
<g><path style="opacity:1" fill="#706e69" d="M 213.5,254.5 C 214.497,253.287 215.497,253.454 216.5,255C 215.423,255.47 214.423,255.303 213.5,254.5 Z"/></g>
<g><path style="opacity:1" fill="#383634" d="M 297.5,253.5 C 296.335,255.416 294.668,256.249 292.5,256C 293.91,254.628 295.577,253.795 297.5,253.5 Z"/></g>
<g><path style="opacity:1" fill="#837f7a" d="M 197.5,259.5 C 200.283,261.067 202.949,262.9 205.5,265C 202.094,264.448 199.428,262.615 197.5,259.5 Z"/></g>
<g><path style="opacity:1" fill="#716e6a" d="M 229.5,261.5 C 227.692,261.509 226.025,261.009 224.5,260C 226.535,259.401 228.201,259.901 229.5,261.5 Z"/></g>
<g><path style="opacity:1" fill="#a9a59e" d="M 278.5,256.5 C 279.552,256.351 280.552,256.517 281.5,257C 265.251,263.488 248.917,263.821 232.5,258C 240.006,259.661 247.672,260.495 255.5,260.5C 263.604,260.943 271.27,259.61 278.5,256.5 Z"/></g>
<g><path style="opacity:1" fill="#413f3d" d="M 281.5,261.5 C 282.799,259.901 284.465,259.401 286.5,260C 284.975,261.009 283.308,261.509 281.5,261.5 Z"/></g>
<g><path style="opacity:1" fill="#7b7873" d="M 323.5,257.5 C 321.472,260.719 318.805,262.886 315.5,264C 317.771,261.218 320.437,259.051 323.5,257.5 Z"/></g>
<g><path style="opacity:1" fill="#4d4b48" d="M 229.5,261.5 C 246.84,266.833 264.173,266.833 281.5,261.5C 273.517,265.13 265.017,266.796 256,266.5C 250.127,266.443 244.293,265.943 238.5,265C 235.135,264.495 232.135,263.328 229.5,261.5 Z"/></g>
<g><path style="opacity:1" fill="#898580" d="M 210.5,269.5 C 210.56,268.957 210.893,268.624 211.5,268.5C 214.5,270 217.5,271.5 220.5,273C 216.932,272.726 213.599,271.56 210.5,269.5 Z"/></g>
<g><path style="opacity:1" fill="#817e79" d="M 291.5,278.5 C 295.164,275.833 299.164,274 303.5,273C 299.856,275.656 295.856,277.489 291.5,278.5 Z"/></g>
<g><path style="opacity:1" fill="#9a9690" d="M 235.5,278.5 C 232.053,278.186 228.72,277.352 225.5,276C 229.256,275.391 232.59,276.225 235.5,278.5 Z"/></g>
<g><path style="opacity:1" fill="#94908a" d="M 235.5,278.5 C 242.167,279.093 248.834,279.759 255.5,280.5C 275.492,279.502 275.492,279.835 255.5,281.5C 248.547,281.468 241.881,280.468 235.5,278.5 Z"/></g>
<g><path style="opacity:1" fill="#8c8983" d="M 291.5,278.5 C 269.929,287.884 247.929,288.718 225.5,281C 247.699,286.325 269.699,285.492 291.5,278.5 Z"/></g>
<g><path style="opacity:1" fill="#141413" d="M 161.5,296.5 C 169.295,295.487 176.128,297.487 182,302.5C 181.517,307.966 180.184,313.3 178,318.5C 178.956,311.148 176.789,304.981 171.5,300C 169.564,299.187 167.564,298.687 165.5,298.5C 164.167,297.833 162.833,297.167 161.5,296.5 Z"/></g>
<g><path style="opacity:1" fill="#5f5c59" d="M 161.5,296.5 C 162.833,297.167 164.167,297.833 165.5,298.5C 161.3,298.19 157.3,298.857 153.5,300.5C 155.651,298.282 158.318,296.948 161.5,296.5 Z"/></g>
<g><path style="opacity:1" fill="#030303" d="M 228.5,296.5 C 229.331,310.994 229.831,325.661 230,340.5C 230.5,341.667 231.333,342.5 232.5,343C 228.833,343.667 225.167,343.667 221.5,343C 222.126,342.25 222.626,341.416 223,340.5C 223.815,327.121 223.648,313.788 222.5,300.5C 224.565,299.143 226.565,297.81 228.5,296.5 Z"/></g>
<g><path style="opacity:1" fill="#131212" d="M 153.5,300.5 C 147.857,306.002 146.023,312.668 148,320.5C 152.671,338.082 163.504,343.916 180.5,338C 168.195,347.446 156.695,346.613 146,335.5C 138.068,321.399 140.568,309.732 153.5,300.5 Z"/></g>
<g><path style="opacity:1" fill="#171716" d="M 274.5,304.5 C 275.331,315.993 275.831,327.659 276,339.5C 282.799,340.856 282.466,342.522 275,344.5C 272.463,344.3 270.796,342.967 270,340.5C 269.5,331.84 269.334,323.173 269.5,314.5C 268.127,314.657 266.793,314.49 265.5,314C 267.649,312.836 269.815,311.67 272,310.5C 273.559,308.783 274.392,306.783 274.5,304.5 Z"/></g>
<g><path style="opacity:1" fill="#141413" d="M 203.5,328.5 C 204.278,327.844 204.944,327.011 205.5,326C 205.43,325.235 205.097,324.735 204.5,324.5C 203.793,315.64 199.127,312.473 190.5,315C 197.401,311.024 203.568,311.858 209,317.5C 211.078,324.402 212.745,331.402 214,338.5C 214.9,339.77 216.066,340.77 217.5,341.5C 215.782,344.014 213.449,344.847 210.5,344C 209.144,341.602 207.977,339.102 207,336.5C 206.111,337.888 205.611,337.722 205.5,336C 206.459,333.88 206.626,331.713 206,329.5C 205.329,328.748 204.496,328.414 203.5,328.5 Z"/></g>
<g><path style="opacity:1" fill="#9a9690" d="M 248.5,312.5 C 249.5,313.167 250.5,313.833 251.5,314.5C 248.748,314.578 246.082,314.745 243.5,315C 245.03,313.88 246.697,313.046 248.5,312.5 Z"/></g>
<g><path style="opacity:1" fill="#171615" d="M 248.5,312.5 C 259.269,311.935 264.269,316.935 263.5,327.5C 261.5,327.5 259.5,327.5 257.5,327.5C 257.5,327.167 257.5,326.833 257.5,326.5C 258.478,320.858 256.478,316.858 251.5,314.5C 250.5,313.833 249.5,313.167 248.5,312.5 Z"/></g>
<g><path style="opacity:1" fill="#575451" d="M 305.5,313.5 C 303.585,313.216 301.919,313.549 300.5,314.5C 297.308,314.405 294.308,315.071 291.5,316.5C 292.975,314.59 294.975,313.424 297.5,313C 300.367,312.199 303.034,312.366 305.5,313.5 Z"/></g>
<g><path style="opacity:1" fill="#0d0d0c" d="M 300.5,314.5 C 301.919,313.549 303.585,313.216 305.5,313.5C 315.872,316.909 319.372,323.909 316,334.5C 314.669,336.996 312.836,338.996 310.5,340.5C 314.393,328.965 311.06,320.299 300.5,314.5 Z"/></g>
<g><path style="opacity:1" fill="#121211" d="M 330.5,315.5 C 329.167,317.5 329.167,319.5 330.5,321.5C 329.376,327.752 329.21,334.085 330,340.5C 330.374,341.416 330.874,342.25 331.5,343C 328.5,343.667 325.5,343.667 322.5,343C 323.822,334.197 323.822,325.363 322.5,316.5C 324.937,315.074 327.437,313.741 330,312.5C 330.483,313.448 330.649,314.448 330.5,315.5 Z"/></g>
<g><path style="opacity:1" fill="#121211" d="M 358.5,340.5 C 358.5,340.833 358.5,341.167 358.5,341.5C 356.561,344.276 354.061,344.943 351,343.5C 348.202,335.311 345.869,326.978 344,318.5C 341.021,315.476 337.521,314.642 333.5,316C 340.019,310.668 345.519,311.501 350,318.5C 351.353,325.246 353.02,331.913 355,338.5C 355.71,339.973 356.876,340.64 358.5,340.5 Z"/></g>
<g><path style="opacity:1" fill="#f7f0e6" d="M 300.5,314.5 C 311.06,320.299 314.393,328.965 310.5,340.5C 308.973,340.427 307.973,341.094 307.5,342.5C 300.872,343.769 296.039,341.436 293,335.5C 289.143,329.318 288.643,322.984 291.5,316.5C 294.308,315.071 297.308,314.405 300.5,314.5 Z"/></g>
<g><path style="opacity:1" fill="#151514" d="M 241.5,327.5 C 241.5,327.833 241.5,328.167 241.5,328.5C 244.901,339.197 251.901,343.03 262.5,340C 253.55,346.635 245.383,345.802 238,337.5C 233.863,329.588 235.03,322.588 241.5,316.5C 240.461,319.985 240.461,323.652 241.5,327.5 Z"/></g>
<g><path style="opacity:1" fill="#141413" d="M 291.5,316.5 C 288.643,322.984 289.143,329.318 293,335.5C 296.039,341.436 300.872,343.769 307.5,342.5C 297.254,346.634 289.754,343.634 285,333.5C 283.283,326.278 285.45,320.611 291.5,316.5 Z"/></g>
<g><path style="opacity:1" fill="#787570" d="M 330.5,315.5 C 330.351,316.552 330.517,317.552 331,318.5C 331.654,317.304 332.154,317.304 332.5,318.5C 332.058,319.739 331.391,320.739 330.5,321.5C 329.167,319.5 329.167,317.5 330.5,315.5 Z"/></g>
<g><path style="opacity:1" fill="#7c7873" d="M 204.5,324.5 C 205.097,324.735 205.43,325.235 205.5,326C 204.944,327.011 204.278,327.844 203.5,328.5C 200.5,328.5 197.5,328.5 194.5,328.5C 194.158,327.662 193.492,327.328 192.5,327.5C 196.768,327.131 200.768,326.131 204.5,324.5 Z"/></g>
<g><path style="opacity:1" fill="#aba6a0" d="M 257.5,326.5 C 257.5,326.833 257.5,327.167 257.5,327.5C 252.167,327.833 246.833,328.167 241.5,328.5C 241.5,328.167 241.5,327.833 241.5,327.5C 246.797,326.725 252.13,326.392 257.5,326.5 Z"/></g>
<g><path style="opacity:1" fill="#0f0f0e" d="M 192.5,327.5 C 193.492,327.328 194.158,327.662 194.5,328.5C 192.983,328.511 191.816,329.177 191,330.5C 190.263,339.725 194.43,343.225 203.5,341C 197.786,345.824 192.286,345.657 187,340.5C 183.67,333.776 185.503,329.443 192.5,327.5 Z"/></g>
<g><path style="opacity:1" fill="#8c8782" d="M 358.5,341.5 C 358.5,341.167 358.5,340.833 358.5,340.5C 359.06,338.199 359.56,335.866 360,333.5C 360.885,336.538 360.385,339.205 358.5,341.5 Z"/></g>
<g><path style="opacity:1" fill="#5b5855" d="M 310.5,340.5 C 310.027,341.906 309.027,342.573 307.5,342.5C 307.973,341.094 308.973,340.427 310.5,340.5 Z"/></g>
<g><path style="opacity:1" fill="#1c1c1b" d="M 221.5,386.5 C 222.201,389.563 222.868,392.73 223.5,396C 222.551,396.617 221.718,396.451 221,395.5C 220.264,392.408 220.431,389.408 221.5,386.5 Z"/></g>
<g><path style="opacity:1" fill="#080808" d="M 246.5,389.5 C 246.56,388.957 246.893,388.624 247.5,388.5C 248.652,391.106 248.818,393.773 248,396.5C 247.814,393.964 247.314,391.631 246.5,389.5 Z"/></g>
<g><path style="opacity:1" fill="#10100f" d="M 279.5,388.5 C 280.167,390.833 280.833,393.167 281.5,395.5C 280.749,396.573 279.749,396.74 278.5,396C 279.435,393.619 279.768,391.119 279.5,388.5 Z"/></g>
<g><path style="opacity:1" fill="#1e1e1d" d="M 241.5,388.5 C 242.189,387.226 243.023,387.226 244,388.5C 244.667,389.5 244.667,390.5 244,391.5C 243.623,390.058 242.79,389.058 241.5,388.5 Z"/></g>
<g><path style="opacity:1" fill="#292827" d="M 250.5,388.5 C 251.386,387.224 252.386,387.224 253.5,388.5C 254.115,391.039 254.782,393.539 255.5,396C 255.167,396.167 254.833,396.333 254.5,396.5C 253.457,393.556 252.124,390.889 250.5,388.5 Z"/></g>
<g><path style="opacity:1" fill="#1a1a19" d="M 255.5,388.5 C 256.542,387.209 257.708,387.209 259,388.5C 259.761,391.053 260.594,393.553 261.5,396C 260.517,396.591 259.85,396.257 259.5,395C 258.922,393.189 258.422,391.355 258,389.5C 257.329,388.748 256.496,388.414 255.5,388.5 Z"/></g>
<g><path style="opacity:1" fill="#242322" d="M 266.5,388.5 C 267.793,387.355 268.959,387.689 270,389.5C 270.236,391.764 270.736,393.931 271.5,396C 270.668,396.688 270.002,396.521 269.5,395.5C 269.113,392.762 268.113,390.428 266.5,388.5 Z"/></g>
<g><path style="opacity:1" fill="#292826" d="M 287.5,388.5 C 289.496,387.312 290.329,387.979 290,390.5C 289.292,389.619 288.458,388.953 287.5,388.5 Z"/></g>
<g><path style="opacity:1" fill="#242322" d="M 295.5,388.5 C 296.793,387.355 297.959,387.689 299,389.5C 299.236,391.764 299.736,393.931 300.5,396C 299.668,396.688 299.002,396.521 298.5,395.5C 298.113,392.762 297.113,390.428 295.5,388.5 Z"/></g>
<g><path style="opacity:1" fill="#2e2c2b" d="M 205.5,382.5 C 207.176,386.636 208.176,391.136 208.5,396C 207.552,396.483 206.552,396.649 205.5,396.5C 205.5,391.833 205.5,387.167 205.5,382.5 Z"/></g>
<g><path style="opacity:1" fill="#292826" d="M 229.5,388.5 C 230.708,387.218 232.042,387.218 233.5,388.5C 234.123,391.167 235.123,393.667 236.5,396C 235.551,396.617 234.718,396.451 234,395.5C 233.64,393.392 232.973,391.392 232,389.5C 231.329,388.748 230.496,388.414 229.5,388.5 Z"/></g>
<g><path style="opacity:1" fill="#7b7873" d="M 279.5,388.5 C 279.56,387.957 279.893,387.624 280.5,387.5C 281.48,390.086 281.813,392.753 281.5,395.5C 280.833,393.167 280.167,390.833 279.5,388.5 Z"/></g>
<g><path style="opacity:1" fill="#2b2a29" d="M 195.5,383.5 C 196.376,383.369 197.043,383.702 197.5,384.5C 198.559,387.618 199.892,390.618 201.5,393.5C 201.192,394.308 200.692,394.975 200,395.5C 198.395,391.515 196.895,387.515 195.5,383.5 Z"/></g>
<g><path style="opacity:1" fill="#232221" d="M 213.5,388.5 C 214.793,387.355 215.959,387.689 217,389.5C 217.093,392.007 217.926,394.174 219.5,396C 218.552,396.483 217.552,396.649 216.5,396.5C 216.655,393.284 215.655,390.617 213.5,388.5 Z"/></g>
<g><path style="opacity:1" fill="#2b2a29" d="M 227.5,382.5 C 228.812,387.015 228.812,391.682 227.5,396.5C 226.225,391.784 226.225,387.117 227.5,382.5 Z"/></g>
<g><path style="opacity:1" fill="#2c2b29" d="M 302.5,383.5 C 303.8,385.223 304.467,387.39 304.5,390C 304.167,392.167 303.833,394.333 303.5,396.5C 302.508,392.217 302.174,387.884 302.5,383.5 Z"/></g>
<g><path style="opacity:1" fill="#222120" d="M 210.5,392.5 C 211.404,393.209 211.737,394.209 211.5,395.5C 215.172,396.045 214.838,396.378 210.5,396.5C 210.5,395.167 210.5,393.833 210.5,392.5 Z"/></g>
<g><path style="opacity:1" fill="#343331" d="M 283.5,389.5 C 283.866,393.037 285.866,395.204 289.5,396C 283.762,397.099 281.762,394.933 283.5,389.5 Z"/></g>
<g><path style="opacity:1" fill="#353432" d="M 262.5,392.5 C 264.048,392.821 264.715,393.821 264.5,395.5C 265.552,395.351 266.552,395.517 267.5,396C 264.074,397.238 262.408,396.071 262.5,392.5 Z"/></g>
<g><path style="opacity:1" fill="#363533" d="M 291.5,392.5 C 293.048,392.821 293.715,393.821 293.5,395.5C 294.552,395.351 295.552,395.517 296.5,396C 293.074,397.238 291.408,396.071 291.5,392.5 Z"/></g>
<g><path style="opacity:1" fill="#2c2b29" d="M 274.5,385.5 C 275.198,388.897 275.865,392.397 276.5,396C 275.552,396.483 274.552,396.649 273.5,396.5C 273.244,392.731 273.577,389.064 274.5,385.5 Z"/></g>
<g><path style="opacity:1" fill="#161514" d="M 237.5,389.5 C 237.841,392.562 239.508,394.728 242.5,396C 238.194,396.172 236.527,394.006 237.5,389.5 Z"/></g>
<g><path style="opacity:1" fill="#050505" d="M 202.5,410.5 C 202.183,414.702 202.517,418.702 203.5,422.5C 203.44,423.043 203.107,423.376 202.5,423.5C 201.189,419.016 201.189,414.683 202.5,410.5 Z"/></g>
<g><path style="opacity:1" fill="#4b4a46" d="M 230.5,410.5 C 232.337,410.639 232.67,411.306 231.5,412.5C 230.702,412.043 230.369,411.376 230.5,410.5 Z"/></g>
<g><path style="opacity:1" fill="#0b0b0a" d="M 254.5,410.5 C 255.193,414.565 255.86,418.732 256.5,423C 255.5,423.667 254.5,423.667 253.5,423C 254.464,418.934 254.797,414.767 254.5,410.5 Z"/></g>
<g><path style="opacity:1" fill="#504e4b" d="M 297.5,410.5 C 299.337,410.639 299.67,411.306 298.5,412.5C 297.702,412.043 297.369,411.376 297.5,410.5 Z"/></g>
<g><path style="opacity:1" fill="#807d78" d="M 204.5,415.5 C 203.631,417.717 203.298,420.05 203.5,422.5C 202.517,418.702 202.183,414.702 202.5,410.5C 203.295,411.528 203.962,413.194 204.5,415.5 Z"/></g>
<g><path style="opacity:1" fill="#585551" d="M 238.5,415.5 C 239.209,414.596 240.209,414.263 241.5,414.5C 241.649,415.552 241.483,416.552 241,417.5C 240.292,416.619 239.458,415.953 238.5,415.5 Z"/></g>
<g><path style="opacity:1" fill="#070706" d="M 262.5,415.5 C 263.167,417.833 263.833,420.167 264.5,422.5C 264.44,423.043 264.107,423.376 263.5,423.5C 262.52,420.914 262.187,418.247 262.5,415.5 Z"/></g>
<g><path style="opacity:1" fill="#131312" d="M 297.5,416.5 C 297.56,415.957 297.893,415.624 298.5,415.5C 299.214,418.027 299.88,420.527 300.5,423C 299.5,423.667 298.5,423.667 297.5,423C 298.811,420.726 298.811,418.56 297.5,416.5 Z"/></g>
<g><path style="opacity:1" fill="#3d3b39" d="M 306.5,415.5 C 308.496,414.312 309.329,414.979 309,417.5C 308.292,416.619 307.458,415.953 306.5,415.5 Z"/></g>
<g><path style="opacity:1" fill="#2c2b29" d="M 231.5,414.5 C 232.803,417.355 232.803,420.355 231.5,423.5C 230.259,420.463 230.259,417.463 231.5,414.5 Z"/></g>
<g><path style="opacity:1" fill="#1f1e1d" d="M 234.5,416.5 C 234.841,419.562 236.508,421.728 239.5,423C 237.888,423.72 236.388,423.554 235,422.5C 234.505,420.527 234.338,418.527 234.5,416.5 Z"/></g>
<g><path style="opacity:1" fill="#181817" d="M 265.5,415.5 C 266.386,414.224 267.386,414.224 268.5,415.5C 269.115,418.039 269.782,420.539 270.5,423C 270.167,423.167 269.833,423.333 269.5,423.5C 268.692,421.577 268.192,419.577 268,417.5C 267.583,416.244 266.75,415.577 265.5,415.5 Z"/></g>
<g><path style="opacity:1" fill="#595754" d="M 288.5,415.5 C 289.074,417.788 290.074,419.955 291.5,422C 287.622,421.426 286.622,419.26 288.5,415.5 Z"/></g>
<g><path style="opacity:1" fill="#292827" d="M 204.5,415.5 C 206.153,414.201 207.653,414.534 209,416.5C 209.093,419.007 209.926,421.174 211.5,423C 210.552,423.483 209.552,423.649 208.5,423.5C 208.477,421.073 207.977,418.74 207,416.5C 206.329,415.748 205.496,415.414 204.5,415.5 Z"/></g>
<g><path style="opacity:1" fill="#2b2a28" d="M 211.5,415.5 C 212.209,414.596 213.209,414.263 214.5,414.5C 214.924,417.354 215.924,420.021 217.5,422.5C 217.167,422.833 216.833,423.167 216.5,423.5C 214.821,420.723 213.155,418.056 211.5,415.5 Z"/></g>
<g><path style="opacity:1" fill="#1d1c1b" d="M 222.5,415.5 C 224,417.179 225.833,418.512 228,419.5C 228.667,420.5 228.667,421.5 228,422.5C 226.622,420.787 224.955,419.453 223,418.5C 222.517,417.552 222.351,416.552 222.5,415.5 Z"/></g>
<g><path style="opacity:1" fill="#232221" d="M 246.5,415.5 C 247.793,414.355 248.959,414.689 250,416.5C 250.093,419.007 250.926,421.174 252.5,423C 251.552,423.483 250.552,423.649 249.5,423.5C 249.655,420.284 248.655,417.617 246.5,415.5 Z"/></g>
<g><path style="opacity:1" fill="#74716c" d="M 262.5,415.5 C 262.56,414.957 262.893,414.624 263.5,414.5C 264.48,417.086 264.813,419.753 264.5,422.5C 263.833,420.167 263.167,417.833 262.5,415.5 Z"/></g>
<g><path style="opacity:1" fill="#2d2c2a" d="M 277.5,422.5 C 276.791,423.404 275.791,423.737 274.5,423.5C 274.572,419.86 273.239,417.027 270.5,415C 271.944,414.219 273.277,414.386 274.5,415.5C 274.887,418.238 275.887,420.572 277.5,422.5 Z"/></g>
<g><path style="opacity:1" fill="#232221" d="M 287.5,423.5 C 286.5,423.5 285.5,423.5 284.5,423.5C 284.585,420.253 283.585,417.419 281.5,415C 282.996,414.493 284.163,414.993 285,416.5C 285.153,419.151 285.987,421.484 287.5,423.5 Z"/></g>
<g><path style="opacity:1" fill="#1c1b1a" d="M 191.5,414.5 C 192.811,418.683 192.811,423.016 191.5,427.5C 190.23,423.119 190.23,418.785 191.5,414.5 Z"/></g>
<g><path style="opacity:1" fill="#1e1d1c" d="M 194.5,415.5 C 198.342,414.514 199.842,416.181 199,420.5C 198.388,417.885 196.888,416.219 194.5,415.5 Z"/></g>
<g><path style="opacity:1" fill="#222120" d="M 243.5,419.5 C 244.404,420.209 244.737,421.209 244.5,422.5C 248.172,423.045 247.838,423.378 243.5,423.5C 243.5,422.167 243.5,420.833 243.5,419.5 Z"/></g>
<g><path style="opacity:1" fill="#32302f" d="M 277.5,422.5 C 278.596,418.711 279.263,418.711 279.5,422.5C 282.595,423.559 281.928,423.559 277.5,422.5 Z"/></g>
<g><path style="opacity:1" fill="#54524e" d="M 294.5,412.5 C 297.113,413.095 297.113,413.929 294.5,415C 296.978,416.938 297.145,419.105 295,421.5C 294.932,418.681 293.766,416.514 291.5,415C 292.942,414.623 293.942,413.79 294.5,412.5 Z"/></g>
<g><path style="opacity:1" fill="#363533" d="M 302.5,415.5 C 302.495,419.506 304.495,422.006 308.5,423C 302.258,423.923 300.258,421.423 302.5,415.5 Z"/></g>
<g><path style="opacity:1" fill="#2e2d2b" d="M 287.5,423.5 C 290.388,424.078 293.388,424.078 296.5,423.5C 296.649,424.552 296.483,425.552 296,426.5C 293.56,425.729 291.06,425.562 288.5,426C 287.748,425.329 287.414,424.496 287.5,423.5 Z"/></g>
</svg>
